# xmcd
# 
# Track frame offsets:
#     150
#     17776
#     37014
#     53403
#     70983
#     88200
#     103623
#     118410
#     134818
#     150516
#     168565
#     186124
#     202276
#     217523
#     235875
#     255972
# 
# Disc length: 3623
# 
# Revision: 0
# Processed by: cddbd v1.5.2PL0 Copyright (c) Steve Scherf et al.
# Submitted via: BonkEnc v1.0.15
# 
DISCID=e40e2510
DTITLE=Cai Qin - Your Eyes蔡琴老歌CD3
DYEAR=2003
DGENRE=Pop
TTITLE0=出塞曲
TTITLE1=恰似你的温柔
TTITLE2=抉择
TTITLE3=你的眼神
TTITLE4=我的思念
TTITLE5=我不哭泣
TTITLE6=盼与寄
TTITLE7=秋梦
TTITLE8=相思雨
TTITLE9=枯叶
TTITLE10=昨日
TTITLE11=船
TTITLE12=远飞的梦舟
TTITLE13=细雨
TTITLE14=昨夜钟声
TTITLE15=赠别
EXTD=
EXTT0=
EXTT1=
EXTT2=
EXTT3=
EXTT4=
EXTT5=
EXTT6=
EXTT7=
EXTT8=
EXTT9=
EXTT10=
EXTT11=
EXTT12=
EXTT13=
EXTT14=
EXTT15=
PLAYORDER=
